<svg xmlns="http://www.w3.org/2000/svg" width="1920" height="1080" viewBox="0 0 1920 1080">
  <!-- Asymmetrical scalloped blob fully within bounds -->
  <path fill="#111111" d="
      M 140 880
      C  70 840,   40 770,   60 700
      C   90 600,  180 560,  240 540
      C  180 480,  150 420,  170 340
      C  200 230,  320 170,  430 180

      C  460 70,   560 30,   660 60
      C  740 85,   780 140,  800 210
      C  860 120,  960 60,  1080 90
      C 1200 120, 1250 200, 1260 270
      C 1340 180, 1450 120, 1580 150
      C 1700 180, 1760 260, 1750 360

      C 1860 390, 1910 470, 1880 560
      C 1850 650, 1760 690, 1700 710
      C 1780 760, 1820 830, 1790 920
      C 1750 1030, 1620 1060, 1500 1020

      C 1440 1100, 1340 1080, 1260 1020
      C 1180 960, 1120 940, 1040 990
      C  960 1040,  880 1080,  760 1040
      C  650 1005,  610 940,  540 930
      C  460 920,  390 1000,  290 990
      C  210 980,  170 940,  140 880
      Z
    "></path>
</svg>