<svg xmlns="http://www.w3.org/2000/svg" width="1024" height="1536" viewBox="0 0 1024 1536">
  <defs>
    <filter id="glow" x="-20%" y="-20%" width="140%" height="140%">
      <feGaussianBlur stdDeviation="10" result="blur"/>
      <feMerge>
        <feMergeNode in="blur"/>
        <feMergeNode in="SourceGraphic"/>
      </feMerge>
    </filter>
  </defs>
  <rect width="100%" height="100%" fill="#000000"/>
  <g fill="none" stroke="#f4e7c2" stroke-linecap="round" stroke-linejoin="round" filter="url(#glow)">
    <path d="M 751.74 280.00 L 761.45 286.00 L 772.52 292.00 L 784.48 298.00 L 793.71 304.00 L 799.90 310.00 L 803.48 316.00 L 804.90 322.00 L 803.71 328.00 L 799.87 334.00 L 793.48 340.00 L 784.71 346.00 L 773.74 352.00 L 760.81 358.00 L 746.03 364.00 L 729.81 370.00 L 712.35 376.00 L 694.29 382.00 L 675.87 388.00 L 657.68 394.00 L 640.00 400.00 L 623.42 406.00 L 608.13 412.00 L 594.45 418.00 L 582.58 424.00 L 572.61 430.00 L 564.58 436.00 L 558.48 442.00 L 554.16 448.00 L 551.55 454.00 L 550.55 460.00 L 550.94 466.00 L 552.55 472.00 L 555.35 478.00 L 559.23 484.00 L 564.10 490.00 L 569.87 496.00 L 576.35 502.00 L 583.55 508.00 L 591.16 514.00 L 598.90 520.00 L 606.65 526.00 L 614.26 532.00 L 621.39 538.00 L 627.90 544.00 L 633.90 550.00 L 639.16 556.00 L 643.77 562.00 L 647.61 568.00 L 650.84 574.00 L 653.35 580.00 L 655.29 586.00 L 656.52 592.00 L 657.13 598.00 L 657.13 604.00 L 656.52 610.00 L 655.32 616.00 L 653.58 622.00 L 651.42 628.00 L 648.77 634.00 L 645.65 640.00 L 642.06 646.00 L 638.03 652.00 L 633.58 658.00 L 628.68 664.00 L 623.39 670.00 L 617.81 676.00 L 611.81 682.00 L 605.39 688.00 L 598.71 694.00 L 591.74 700.00 L 584.42 706.00 L 576.84 712.00 L 569.00 718.00 L 560.97 724.00 L 552.71 730.00 L 544.19 736.00 L 535.52 742.00 L 526.71 748.00 L 517.65 754.00 L 508.48 760.00 L 499.13 766.00 L 489.74 772.00 L 480.13 778.00 L 470.42 784.00 L 460.55 790.00 L 450.61 796.00 L 440.48 802.00 L 430.32 808.00 L 420.10 814.00 L 409.81 820.00 L 399.42 826.00 L 389.03 832.00 L 378.55 838.00 L 367.94 844.00 L 357.23 850.00 L 346.52 856.00 L 335.74 862.00 L 324.94 868.00 L 314.10 874.00 L 303.23 880.00 L 292.35 886.00 L 281.48 892.00 L 270.52 898.00 L 259.52 904.00 L 248.52 910.00 L 237.45 916.00 L 226.29 922.00 L 215.13 928.00 L 203.97 934.00 L 192.74 940.00 L 181.48 946.00 L 170.26 952.00 L 158.94 958.00 L 147.61 964.00 L 136.32 970.00 L 124.97 976.00 L 113.58 982.00 L 102.32 988.00 L 90.97 994.00 L 79.74 1000.00 L 68.48 1006.00 L 57.16 1012.00 L 45.81 1018.00 L 34.52 1024.00 L 23.42 1030.00 L 47.19 1036.00 L 138.19 1042.00 L 230.32 1048.00 L 323.58 1054.00 L 417.87 1060.00 L 495.00 1066.00 L 489.39 1072.00 L 483.90 1078.00 L 478.29 1084.00 L 472.65 1090.00 L 467.03 1096.00 L 461.42 1102.00 L 455.71 1108.00 L 450.06 1114.00 L 444.42 1120.00 L 438.61 1126.00 L 432.84 1132.00 L 427.19 1138.00 L 421.42 1144.00 L 415.61 1150.00 L 409.81 1156.00 L 404.00 1162.00 L 398.19 1168.00 L 392.39 1174.00 L 386.58 1180.00 L 380.77 1186.00 L 374.97 1192.00 L 369.00 1198.00 L 363.03 1204.00 L 357.23 1210.00 L 351.42 1216.00 L 345.61 1222.00 L 339.81 1228.00 L 334.00 1234.00 L 328.00 1240.00 L 322.00 1246.00 L 316.00 1252.00 L 310.00 1258.00 L 304.03 1264.00 L 298.06 1270.00 L 292.16 1276.00 L 286.23 1282.00 L 280.42 1288.00 L 274.55 1294.00 L 268.68 1300.00 L 262.77 1306.00 L 256.94 1312.00 L 250.94 1318.00 L 245.00 1324.00 L 239.00 1330.00 L 233.00 1336.00 L 226.87 1342.00 L 220.74 1348.00 L 214.55 1354.00 L 208.35 1360.00 L 202.16 1366.00 L 196.06 1372.00 L 190.00 1378.00 L 184.00 1384.00 L 178.00 1390.00 L 172.00 1396.00 L 166.00 1402.00 L 160.00 1408.00 L 154.00 1414.00 L 147.90 1420.00 L 141.71 1426.00 L 135.52 1432.00 L 129.32 1438.00 L 123.13 1444.00 L 117.00 1450.00 L 111.00 1456.00 L 105.00 1462.00 L 99.00 1468.00 L 92.90 1474.00 L 86.71 1480.00 L 80.52 1486.00 L 74.32 1492.00 L 68.13 1498.00 L 62.00 1504.00 L 55.81 1510.00 L 49.61 1516.00 L 43.52 1522.00 L 38.39 1528.00 L 34.42 1534.00" stroke-width="3.5"/>
    <path d="M 754.45 280.00 L 765.84 286.00 L 779.29 292.00 L 793.65 298.00 L 804.97 304.00 L 813.03 310.00 L 818.06 316.00 L 820.35 322.00 L 820.32 328.00 L 817.97 334.00 L 813.45 340.00 L 806.90 346.00 L 798.45 352.00 L 788.23 358.00 L 776.39 364.00 L 763.16 370.00 L 748.81 376.00 L 733.74 382.00 L 718.39 388.00 L 703.23 394.00 L 688.65 400.00 L 674.97 406.00 L 662.52 412.00 L 651.45 418.00 L 641.97 424.00 L 634.32 430.00 L 628.61 436.00 L 624.84 442.00 L 623.00 448.00 L 623.00 454.00 L 624.84 460.00 L 628.32 466.00 L 633.35 472.00 L 639.90 478.00 L 647.90 484.00 L 656.90 490.00 L 666.87 496.00 L 677.52 502.00 L 688.42 508.00 L 699.23 514.00 L 709.74 520.00 L 719.77 526.00 L 729.10 532.00 L 737.84 538.00 L 745.90 544.00 L 753.29 550.00 L 759.97 556.00 L 766.00 562.00 L 771.35 568.00 L 776.03 574.00 L 780.16 580.00 L 783.77 586.00 L 786.94 592.00 L 789.58 598.00 L 791.71 604.00 L 793.42 610.00 L 794.81 616.00 L 795.74 622.00 L 796.39 628.00 L 796.74 634.00 L 796.74 640.00 L 796.42 646.00 L 795.87 652.00 L 795.06 658.00 L 794.00 664.00 L 792.81 670.00 L 791.35 676.00 L 789.71 682.00 L 787.87 688.00 L 785.81 694.00 L 783.55 700.00 L 781.19 706.00 L 778.71 712.00 L 776.10 718.00 L 773.32 724.00 L 770.35 730.00 L 767.29 736.00 L 764.03 742.00 L 760.65 748.00 L 757.19 754.00 L 753.68 760.00 L 750.06 766.00 L 746.35 772.00 L 742.52 778.00 L 738.61 784.00 L 734.68 790.00 L 730.65 796.00 L 726.55 802.00 L 722.35 808.00 L 718.10 814.00 L 713.74 820.00 L 709.26 826.00 L 704.74 832.00 L 700.23 838.00 L 695.61 844.00 L 690.97 850.00 L 686.35 856.00 L 681.68 862.00 L 676.97 868.00 L 672.19 874.00 L 667.42 880.00 L 662.52 886.00 L 657.61 892.00 L 652.68 898.00 L 647.71 904.00 L 642.71 910.00 L 637.71 916.00 L 632.65 922.00 L 627.58 928.00 L 622.45 934.00 L 617.29 940.00 L 612.16 946.00 L 607.06 952.00 L 601.81 958.00 L 596.61 964.00 L 591.39 970.00 L 586.16 976.00 L 580.84 982.00 L 575.61 988.00 L 570.35 994.00 L 565.00 1000.00 L 559.65 1006.00 L 554.35 1012.00 L 548.94 1018.00 L 543.58 1024.00 L 538.13 1030.00 L 532.71 1036.00 L 527.19 1042.00 L 521.77 1048.00 L 516.19 1054.00 L 510.77 1060.00 L 505.19 1066.00 L 499.74 1072.00 L 494.13 1078.00 L 488.65 1084.00 L 483.06 1090.00 L 477.45 1096.00 L 471.81 1102.00 L 466.19 1108.00 L 460.48 1114.00 L 454.77 1120.00 L 449.16 1126.00 L 443.48 1132.00 L 437.68 1138.00 L 432.06 1144.00 L 426.39 1150.00 L 420.58 1156.00 L 414.77 1162.00 L 408.97 1168.00 L 403.19 1174.00 L 397.39 1180.00 L 391.58 1186.00 L 385.94 1192.00 L 380.32 1198.00 L 374.55 1204.00 L 368.74 1210.00 L 362.94 1216.00 L 357.10 1222.00 L 351.29 1228.00 L 345.48 1234.00 L 339.68 1240.00 L 333.87 1246.00 L 328.00 1252.00 L 322.00 1258.00 L 316.00 1264.00 L 310.10 1270.00 L 304.29 1276.00 L 298.48 1282.00 L 292.68 1288.00 L 286.87 1294.00 L 281.00 1300.00 L 275.00 1306.00 L 269.00 1312.00 L 263.00 1318.00 L 257.00 1324.00 L 251.00 1330.00 L 245.00 1336.00 L 239.00 1342.00 L 233.00 1348.00 L 227.00 1354.00 L 221.00 1360.00 L 215.00 1366.00 L 209.00 1372.00 L 203.00 1378.00 L 197.00 1384.00 L 191.00 1390.00 L 185.00 1396.00 L 179.00 1402.00 L 173.00 1408.00 L 167.00 1414.00 L 161.00 1420.00 L 155.00 1426.00 L 149.00 1432.00 L 142.90 1438.00 L 136.84 1444.00 L 130.81 1450.00 L 124.61 1456.00 L 118.42 1462.00 L 112.29 1468.00 L 106.19 1474.00 L 100.00 1480.00 L 94.00 1486.00 L 88.00 1492.00 L 82.00 1498.00 L 75.97 1504.00 L 69.97 1510.00 L 63.81 1516.00 L 57.71 1522.00 L 52.58 1528.00 L 48.65 1534.00" stroke-width="4.5"/>
  </g>
  <g fill="none" stroke="#fff8e8" stroke-linecap="round" stroke-linejoin="round">
    <path d="M 751.74 280.00 L 761.45 286.00 L 772.52 292.00 L 784.48 298.00 L 793.71 304.00 L 799.90 310.00 L 803.48 316.00 L 804.90 322.00 L 803.71 328.00 L 799.87 334.00 L 793.48 340.00 L 784.71 346.00 L 773.74 352.00 L 760.81 358.00 L 746.03 364.00 L 729.81 370.00 L 712.35 376.00 L 694.29 382.00 L 675.87 388.00 L 657.68 394.00 L 640.00 400.00 L 623.42 406.00 L 608.13 412.00 L 594.45 418.00 L 582.58 424.00 L 572.61 430.00 L 564.58 436.00 L 558.48 442.00 L 554.16 448.00 L 551.55 454.00 L 550.55 460.00 L 550.94 466.00 L 552.55 472.00 L 555.35 478.00 L 559.23 484.00 L 564.10 490.00 L 569.87 496.00 L 576.35 502.00 L 583.55 508.00 L 591.16 514.00 L 598.90 520.00 L 606.65 526.00 L 614.26 532.00 L 621.39 538.00 L 627.90 544.00 L 633.90 550.00 L 639.16 556.00 L 643.77 562.00 L 647.61 568.00 L 650.84 574.00 L 653.35 580.00 L 655.29 586.00 L 656.52 592.00 L 657.13 598.00 L 657.13 604.00 L 656.52 610.00 L 655.32 616.00 L 653.58 622.00 L 651.42 628.00 L 648.77 634.00 L 645.65 640.00 L 642.06 646.00 L 638.03 652.00 L 633.58 658.00 L 628.68 664.00 L 623.39 670.00 L 617.81 676.00 L 611.81 682.00 L 605.39 688.00 L 598.71 694.00 L 591.74 700.00 L 584.42 706.00 L 576.84 712.00 L 569.00 718.00 L 560.97 724.00 L 552.71 730.00 L 544.19 736.00 L 535.52 742.00 L 526.71 748.00 L 517.65 754.00 L 508.48 760.00 L 499.13 766.00 L 489.74 772.00 L 480.13 778.00 L 470.42 784.00 L 460.55 790.00 L 450.61 796.00 L 440.48 802.00 L 430.32 808.00 L 420.10 814.00 L 409.81 820.00 L 399.42 826.00 L 389.03 832.00 L 378.55 838.00 L 367.94 844.00 L 357.23 850.00 L 346.52 856.00 L 335.74 862.00 L 324.94 868.00 L 314.10 874.00 L 303.23 880.00 L 292.35 886.00 L 281.48 892.00 L 270.52 898.00 L 259.52 904.00 L 248.52 910.00 L 237.45 916.00 L 226.29 922.00 L 215.13 928.00 L 203.97 934.00 L 192.74 940.00 L 181.48 946.00 L 170.26 952.00 L 158.94 958.00 L 147.61 964.00 L 136.32 970.00 L 124.97 976.00 L 113.58 982.00 L 102.32 988.00 L 90.97 994.00 L 79.74 1000.00 L 68.48 1006.00 L 57.16 1012.00 L 45.81 1018.00 L 34.52 1024.00 L 23.42 1030.00 L 47.19 1036.00 L 138.19 1042.00 L 230.32 1048.00 L 323.58 1054.00 L 417.87 1060.00 L 495.00 1066.00 L 489.39 1072.00 L 483.90 1078.00 L 478.29 1084.00 L 472.65 1090.00 L 467.03 1096.00 L 461.42 1102.00 L 455.71 1108.00 L 450.06 1114.00 L 444.42 1120.00 L 438.61 1126.00 L 432.84 1132.00 L 427.19 1138.00 L 421.42 1144.00 L 415.61 1150.00 L 409.81 1156.00 L 404.00 1162.00 L 398.19 1168.00 L 392.39 1174.00 L 386.58 1180.00 L 380.77 1186.00 L 374.97 1192.00 L 369.00 1198.00 L 363.03 1204.00 L 357.23 1210.00 L 351.42 1216.00 L 345.61 1222.00 L 339.81 1228.00 L 334.00 1234.00 L 328.00 1240.00 L 322.00 1246.00 L 316.00 1252.00 L 310.00 1258.00 L 304.03 1264.00 L 298.06 1270.00 L 292.16 1276.00 L 286.23 1282.00 L 280.42 1288.00 L 274.55 1294.00 L 268.68 1300.00 L 262.77 1306.00 L 256.94 1312.00 L 250.94 1318.00 L 245.00 1324.00 L 239.00 1330.00 L 233.00 1336.00 L 226.87 1342.00 L 220.74 1348.00 L 214.55 1354.00 L 208.35 1360.00 L 202.16 1366.00 L 196.06 1372.00 L 190.00 1378.00 L 184.00 1384.00 L 178.00 1390.00 L 172.00 1396.00 L 166.00 1402.00 L 160.00 1408.00 L 154.00 1414.00 L 147.90 1420.00 L 141.71 1426.00 L 135.52 1432.00 L 129.32 1438.00 L 123.13 1444.00 L 117.00 1450.00 L 111.00 1456.00 L 105.00 1462.00 L 99.00 1468.00 L 92.90 1474.00 L 86.71 1480.00 L 80.52 1486.00 L 74.32 1492.00 L 68.13 1498.00 L 62.00 1504.00 L 55.81 1510.00 L 49.61 1516.00 L 43.52 1522.00 L 38.39 1528.00 L 34.42 1534.00" stroke-width="2.2"/>
    <path d="M 754.45 280.00 L 765.84 286.00 L 779.29 292.00 L 793.65 298.00 L 804.97 304.00 L 813.03 310.00 L 818.06 316.00 L 820.35 322.00 L 820.32 328.00 L 817.97 334.00 L 813.45 340.00 L 806.90 346.00 L 798.45 352.00 L 788.23 358.00 L 776.39 364.00 L 763.16 370.00 L 748.81 376.00 L 733.74 382.00 L 718.39 388.00 L 703.23 394.00 L 688.65 400.00 L 674.97 406.00 L 662.52 412.00 L 651.45 418.00 L 641.97 424.00 L 634.32 430.00 L 628.61 436.00 L 624.84 442.00 L 623.00 448.00 L 623.00 454.00 L 624.84 460.00 L 628.32 466.00 L 633.35 472.00 L 639.90 478.00 L 647.90 484.00 L 656.90 490.00 L 666.87 496.00 L 677.52 502.00 L 688.42 508.00 L 699.23 514.00 L 709.74 520.00 L 719.77 526.00 L 729.10 532.00 L 737.84 538.00 L 745.90 544.00 L 753.29 550.00 L 759.97 556.00 L 766.00 562.00 L 771.35 568.00 L 776.03 574.00 L 780.16 580.00 L 783.77 586.00 L 786.94 592.00 L 789.58 598.00 L 791.71 604.00 L 793.42 610.00 L 794.81 616.00 L 795.74 622.00 L 796.39 628.00 L 796.74 634.00 L 796.74 640.00 L 796.42 646.00 L 795.87 652.00 L 795.06 658.00 L 794.00 664.00 L 792.81 670.00 L 791.35 676.00 L 789.71 682.00 L 787.87 688.00 L 785.81 694.00 L 783.55 700.00 L 781.19 706.00 L 778.71 712.00 L 776.10 718.00 L 773.32 724.00 L 770.35 730.00 L 767.29 736.00 L 764.03 742.00 L 760.65 748.00 L 757.19 754.00 L 753.68 760.00 L 750.06 766.00 L 746.35 772.00 L 742.52 778.00 L 738.61 784.00 L 734.68 790.00 L 730.65 796.00 L 726.55 802.00 L 722.35 808.00 L 718.10 814.00 L 713.74 820.00 L 709.26 826.00 L 704.74 832.00 L 700.23 838.00 L 695.61 844.00 L 690.97 850.00 L 686.35 856.00 L 681.68 862.00 L 676.97 868.00 L 672.19 874.00 L 667.42 880.00 L 662.52 886.00 L 657.61 892.00 L 652.68 898.00 L 647.71 904.00 L 642.71 910.00 L 637.71 916.00 L 632.65 922.00 L 627.58 928.00 L 622.45 934.00 L 617.29 940.00 L 612.16 946.00 L 607.06 952.00 L 601.81 958.00 L 596.61 964.00 L 591.39 970.00 L 586.16 976.00 L 580.84 982.00 L 575.61 988.00 L 570.35 994.00 L 565.00 1000.00 L 559.65 1006.00 L 554.35 1012.00 L 548.94 1018.00 L 543.58 1024.00 L 538.13 1030.00 L 532.71 1036.00 L 527.19 1042.00 L 521.77 1048.00 L 516.19 1054.00 L 510.77 1060.00 L 505.19 1066.00 L 499.74 1072.00 L 494.13 1078.00 L 488.65 1084.00 L 483.06 1090.00 L 477.45 1096.00 L 471.81 1102.00 L 466.19 1108.00 L 460.48 1114.00 L 454.77 1120.00 L 449.16 1126.00 L 443.48 1132.00 L 437.68 1138.00 L 432.06 1144.00 L 426.39 1150.00 L 420.58 1156.00 L 414.77 1162.00 L 408.97 1168.00 L 403.19 1174.00 L 397.39 1180.00 L 391.58 1186.00 L 385.94 1192.00 L 380.32 1198.00 L 374.55 1204.00 L 368.74 1210.00 L 362.94 1216.00 L 357.10 1222.00 L 351.29 1228.00 L 345.48 1234.00 L 339.68 1240.00 L 333.87 1246.00 L 328.00 1252.00 L 322.00 1258.00 L 316.00 1264.00 L 310.10 1270.00 L 304.29 1276.00 L 298.48 1282.00 L 292.68 1288.00 L 286.87 1294.00 L 281.00 1300.00 L 275.00 1306.00 L 269.00 1312.00 L 263.00 1318.00 L 257.00 1324.00 L 251.00 1330.00 L 245.00 1336.00 L 239.00 1342.00 L 233.00 1348.00 L 227.00 1354.00 L 221.00 1360.00 L 215.00 1366.00 L 209.00 1372.00 L 203.00 1378.00 L 197.00 1384.00 L 191.00 1390.00 L 185.00 1396.00 L 179.00 1402.00 L 173.00 1408.00 L 167.00 1414.00 L 161.00 1420.00 L 155.00 1426.00 L 149.00 1432.00 L 142.90 1438.00 L 136.84 1444.00 L 130.81 1450.00 L 124.61 1456.00 L 118.42 1462.00 L 112.29 1468.00 L 106.19 1474.00 L 100.00 1480.00 L 94.00 1486.00 L 88.00 1492.00 L 82.00 1498.00 L 75.97 1504.00 L 69.97 1510.00 L 63.81 1516.00 L 57.71 1522.00 L 52.58 1528.00 L 48.65 1534.00" stroke-width="2.8"/>
  </g>
</svg>