<svg xmlns="http://www.w3.org/2000/svg" width="1536" height="1024" viewBox="0 0 1536 1024">
  <path d="M 525.0,1019.5 L 89.0,1019.5 L 88.0,1016.5 L 74.0,1016.5 L 73.0,1010.5 L 65.5,1010.0 L 66.0,1007.5 L 69.5,1007.0 L 69.0,993.5 L 58.5,993.0 L 59.0,1004.5 L 51.5,1004.0 L 49.0,991.5 L 41.0,991.5 L 40.5,998.0 L 38.0,998.5 L 37.5,992.0 L 30.5,991.0 L 30.5,977.0 L 24.0,976.5 L 23.0,969.5 L 4.0,968.5 L 3.5,964.0 L 12.0,962.5 L 12.5,959.0 L 19.0,955.5 L 28.0,955.5 L 30.0,949.5 L 54.0,937.5 L 59.0,937.5 L 66.0,930.5 L 703.0,599.5 L 826.0,530.5 L 879.0,496.5 L 919.0,465.5 L 938.5,445.0 L 949.5,425.0 L 950.5,407.0 L 944.5,393.0 L 935.0,381.5 L 895.0,352.5 L 877.5,336.0 L 870.5,321.0 L 870.5,314.0 L 876.5,301.0 L 897.0,284.5 L 936.0,267.5 L 994.0,249.5 L 1067.0,230.5 L 1103.0,218.5 L 1129.0,206.5 L 1136.5,200.0 L 1138.5,188.0 L 1131.0,179.5 L 1111.0,169.5 L 1111.0,166.5 L 1134.0,173.5 L 1151.0,182.5 L 1159.5,191.0 L 1160.5,198.0 L 1157.5,204.0 L 1146.0,213.5 L 1108.0,230.5 L 1019.0,258.5 L 975.0,275.5 L 953.0,288.5 L 941.5,302.0 L 943.5,314.0 L 954.0,325.5 L 975.0,338.5 L 1033.0,367.5 L 1055.0,383.5 L 1071.5,403.0 L 1079.5,423.0 L 1079.5,448.0 L 1073.5,468.0 L 1049.5,510.0 L 1020.5,546.0 L 976.0,592.5 L 694.0,854.5 L 525.0,1019.5 Z" fill="#f2e3c3"/>
</svg>
